<?xml version="1.0" encoding="UTF-8" standalone="no"?>
<!DOCTYPE svg PUBLIC "-//W3C//DTD SVG 20010904//EN"
              "http://www.w3.org/TR/2001/REC-SVG-20010904/DTD/svg10.dtd">

<svg xmlns="http://www.w3.org/2000/svg"
     width="84.4139mm" height="85.737mm"
     viewBox="0 0 319 324">
  <path id="Selection #1"
        fill="#6e4bbc" stroke="none" stroke-width="1"
        d="M 8.00,102.00
           C 8.00,102.00 29.85,62.00 29.85,62.00
             29.85,62.00 42.18,42.53 42.18,42.53
             42.18,42.53 56.00,34.15 56.00,34.15
             56.00,34.15 82.00,19.15 82.00,19.15
             82.00,19.15 103.00,6.99 103.00,6.99
             103.00,6.99 113.00,1.92 113.00,1.92
             113.00,1.92 122.00,5.42 122.00,5.42
             122.00,5.42 140.00,15.85 140.00,15.85
             140.00,15.85 208.00,55.40 208.00,55.40
             208.00,55.40 227.98,68.21 227.98,68.21
             227.98,68.21 229.00,76.00 229.00,76.00
             229.00,76.00 229.00,107.00 229.00,107.00
             229.00,107.00 202.00,92.42 202.00,92.42
             202.00,92.42 146.00,59.58 146.00,59.58
             146.00,59.58 125.00,47.28 125.00,47.28
             125.00,47.28 115.00,42.51 115.00,42.51
             115.00,42.51 105.00,47.00 105.00,47.00
             105.00,47.00 85.00,58.58 85.00,58.58
             85.00,58.58 38.00,85.60 38.00,85.60
             38.00,85.60 8.00,102.00 8.00,102.00 Z
           M 283.00,62.00
           C 288.09,67.58 299.82,89.92 304.60,98.00
             304.60,98.00 317.35,121.00 317.35,121.00
             318.11,123.52 318.00,126.38 318.00,129.00
             318.00,129.00 318.00,198.00 318.00,198.00
             318.00,200.31 318.22,203.63 316.98,205.62
             315.47,208.03 307.76,212.15 305.00,213.72
             305.00,213.72 279.00,228.85 279.00,228.85
             279.00,228.85 225.00,260.40 225.00,260.40
             220.89,262.83 205.76,272.46 202.00,272.34
             199.24,272.25 194.51,269.15 192.00,267.72
             186.38,264.52 172.33,256.63 168.00,253.00
             184.44,245.09 239.86,212.12 257.00,201.32
             257.00,201.32 274.00,191.00 274.00,191.00
             276.53,189.48 280.51,187.40 281.98,184.82
             283.20,182.67 283.00,179.43 283.00,177.00
             283.00,177.00 283.00,62.00 283.00,62.00 Z
           M 79.00,125.00
           C 79.00,125.00 80.00,139.00 80.00,139.00
             80.00,139.00 80.00,164.00 80.00,164.00
             80.00,164.00 80.00,251.00 80.00,251.00
             80.00,251.00 81.02,258.67 81.02,258.67
             81.02,258.67 89.00,264.42 89.00,264.42
             89.00,264.42 106.00,274.00 106.00,274.00
             106.00,274.00 160.00,304.58 160.00,304.58
             160.00,304.58 186.00,320.00 186.00,320.00
             186.00,320.00 124.00,320.00 124.00,320.00
             113.87,319.98 110.57,316.48 102.00,311.58
             102.00,311.58 76.00,296.85 76.00,296.85
             76.00,296.85 55.00,285.00 55.00,285.00
             52.43,283.53 47.52,281.14 46.02,278.67
             44.78,276.63 45.00,273.35 45.00,271.00
             45.00,271.00 45.00,153.00 45.00,153.00
             45.00,150.65 44.78,147.37 46.02,145.33
             47.56,142.80 53.29,139.97 56.00,138.42
             56.00,138.42 79.00,125.00 79.00,125.00 Z" />
  <path id="Selection"
        fill="#4bb8bd" stroke="none" stroke-width="1"
        d="M 133.00,1.00
           C 133.00,1.00 194.00,1.00 194.00,1.00
             204.80,1.02 208.80,4.74 218.00,10.00
             218.00,10.00 242.00,23.72 242.00,23.72
             242.00,23.72 263.00,35.58 263.00,35.58
             265.27,36.88 270.65,39.58 272.01,41.61
             273.25,43.46 273.00,46.81 273.00,49.00
             273.00,49.00 273.00,168.00 273.00,168.00
             273.00,170.24 273.24,173.56 272.01,175.47
             270.54,177.74 264.51,180.85 262.00,182.28
             255.65,185.89 244.45,193.12 238.00,195.00
             238.00,195.00 238.00,70.00 238.00,70.00
             238.00,70.00 236.98,62.18 236.98,62.18
             236.98,62.18 229.00,56.15 229.00,56.15
             229.00,56.15 213.00,47.00 213.00,47.00
             213.00,47.00 166.00,20.30 166.00,20.30
             166.00,20.30 133.00,1.00 133.00,1.00 Z
           M 35.00,265.00
           C 35.00,265.00 10.72,223.00 10.72,223.00
             5.24,213.36 1.02,209.40 1.00,198.00
             1.00,198.00 1.00,129.00 1.00,129.00
             1.00,126.77 0.76,123.43 1.99,121.53
             3.61,119.03 18.45,111.08 22.00,108.99
             22.00,108.99 90.00,69.20 90.00,69.20
             90.00,69.20 109.00,58.15 109.00,58.15
             111.81,56.55 114.60,54.46 118.00,55.20
             120.05,55.65 126.78,59.72 129.00,61.00
             129.00,61.00 150.00,73.00 150.00,73.00
             150.00,73.00 150.00,75.00 150.00,75.00
             150.00,75.00 62.00,125.99 62.00,125.99
             62.00,125.99 45.00,136.00 45.00,136.00
             45.00,136.00 37.02,142.18 37.02,142.18
             37.02,142.18 36.00,150.00 36.00,150.00
             36.00,150.00 36.00,230.00 36.00,230.00
             36.00,230.00 36.00,252.00 36.00,252.00
             36.00,252.00 35.00,265.00 35.00,265.00 Z
           M 90.00,217.00
           C 90.00,217.00 118.00,232.72 118.00,232.72
             118.00,232.72 174.00,265.00 174.00,265.00
             174.00,265.00 196.00,277.72 196.00,277.72
             196.00,277.72 206.00,281.91 206.00,281.91
             206.00,281.91 215.00,277.42 215.00,277.42
             215.00,277.42 234.00,266.42 234.00,266.42
             234.00,266.42 283.00,237.99 283.00,237.99
             283.00,237.99 312.00,222.00 312.00,222.00
             312.00,222.00 290.28,260.00 290.28,260.00
             287.68,264.58 280.77,277.57 277.67,280.67
             274.77,283.58 267.79,287.25 264.00,289.42
             264.00,289.42 237.00,305.01 237.00,305.01
             237.00,305.01 216.00,317.15 216.00,317.15
             213.77,318.42 208.22,321.84 206.00,322.22
             202.63,322.80 199.72,320.46 197.00,318.81
             197.00,318.81 179.00,308.28 179.00,308.28
             179.00,308.28 111.00,268.80 111.00,268.80
             107.58,266.76 92.54,258.61 90.99,256.37
             89.74,254.56 90.00,251.15 90.00,249.00
             90.00,249.00 90.00,217.00 90.00,217.00 Z" />
</svg>
